<svg xmlns="http://www.w3.org/2000/svg" viewBox="0 0 368.583 517.553" fill="none" stroke="currentColor" stroke-linecap="round" stroke-linejoin="round">
  <g fill-rule="evenodd" stroke-width="1.5">
    <path d="m174 304c-3.405-5.553-0.699-15.361-1.352-22.453 7.073-1.05 14.878-0.606 22.047-0.242 0.486 7.384 0.524 15.073 0 22.391-6.85 0.68-13.81 0.11-20.7 0.3"/>
    <path d="m176.5 300.5c4.977-0.104 10.012 0.207 14.953-0.147 0.621-4.737 1.454-11.191-0.396-15.407-4.609-0.931-9.51 0.094-14.116 0.01-1.79 4.31-1.01 10.72-0.43 15.55"/>
    <path d="m176.5 347.5c8.692 20.896 28.554-15.101 2.85-7.711-1.47 2.3-3.23 4.79-2.85 7.71"/>
    <path d="m14.5 421.5c7.683-0.206 15.526 0.409 23.11-0.302 1.966-9.985 0.504-21.239 0.742-31.651-7.74-1.054-16.211-0.604-24.047-0.242-0.37 10.63-0.773 21.67 0.195 32.19"/>
    <path d="m59.5 421.5c7.644-0.102 15.344 0.202 22.953-0.147 1.062-10.407 0.597-21.545 0.242-32.048-7.717-0.488-15.74-0.523-23.391 0-0.369 10.64-0.772 21.68 0.196 32.2"/>
    <path d="m288.5 421.5c7.644-0.102 15.345 0.202 22.953-0.147 1.062-10.407 0.597-21.545 0.242-32.048-7.884-0.33-16.341-0.843-23.992 0.242 0.19 10.52-1.39 21.91 0.8 31.96"/>
    <path d="m330 421.5c7.811-0.103 15.678 0.202 23.453-0.147 1.062-10.407 0.597-21.545 0.242-32.048-7.884-0.33-16.341-0.843-23.992 0.242-0.13 10.57-0.74 21.61 0.3 31.96"/>
    <path d="m17 418c5.876-0.207 11.934 0.412 17.695-0.305 0.333-8.551 0.841-17.674-0.242-25.992-5.479-0.195-11.191-0.606-16.601 0.187-1.969 7.99-0.298 17.52-0.852 26.1"/>
    <path d="m63 418c-1.947-7.723-1.079-18.036-0.453-26.297 5.595-0.356 11.319-0.282 16.906-0.056 1.057 8.407 0.602 17.545 0.242 26.048-5.508 0.68-11.139 0.13-16.695 0.31"/>
    <path d="m291 418c5.707-0.363 11.869 0.729 17.297-0.547 0.264-8.301 0.48-16.833-0.099-25.063-5.024-1.811-11.42-0.752-16.809-0.588-1.71 8.13-0.99 17.81-0.39 26.2"/>
    <path d="m333 418c6.041-0.364 12.536 0.729 18.297-0.547 0.264-8.301 0.48-16.833-0.099-25.063-5.357-1.819-12.087-0.745-17.809-0.588-1.71 8.13-0.99 17.81-0.39 26.2"/>
    <path d="m14.5 489.5c7.683-0.206 15.526 0.409 23.11-0.302 1.966-9.985 0.504-21.239 0.742-31.651-7.74-1.054-16.211-0.604-24.047-0.242-0.37 10.63-0.773 21.67 0.195 32.19"/>
    <path d="m59.5 489.5c7.644-0.102 15.344 0.202 22.953-0.147 1.062-10.407 0.597-21.545 0.242-32.048-7.717-0.488-15.74-0.523-23.391 0-0.369 10.64-0.772 21.68 0.196 32.2"/>
    <path d="m288 489.5c7.811-0.103 15.678 0.202 23.453-0.147 1.062-10.407 0.597-21.545 0.242-32.048-7.884-0.33-16.341-0.843-23.992 0.242-0.13 10.57-0.74 21.61 0.3 31.96"/>
    <path d="m330 489.5c7.811-0.103 15.678 0.202 23.453-0.147 1.062-10.407 0.597-21.545 0.242-32.048-7.884-0.33-16.341-0.843-23.992 0.242-0.13 10.57-0.74 21.61 0.3 31.96"/>
    <path d="m18 487c-1.944-7.726-1.084-18.037-0.449-26.304 5.558 0.779 11.584-0.214 17.144 0.608 0.491 8.384 0.521 17.073 0 25.391-5.508 0.67-11.139 0.12-16.695 0.3"/>
    <path d="m62 487c5.876-0.207 11.934 0.412 17.695-0.305 0.491-8.384 0.521-17.073 0-25.391-5.718-0.474-11.739-0.535-17.391 0-0.695 8.5-0.112 17.13-0.304 25.69"/>
    <path d="m292 487c-3.03-6.579-1.46-18.218-0.789-25.826 5.452-0.619 11.701-0.416 17.086 0.373 0.367 8.262 0.273 16.652 0.056 24.906-5.2 1.24-10.95 0.21-16.36 0.55"/>
    <path d="m334 487c-3.415-6.557-0.69-17.359-1.353-25.453 5.906-0.885 12.813-0.931 18.649 0 0.367 8.262 0.273 16.652 0.056 24.906-5.54 1.23-11.62 0.2-17.36 0.54"/>
    <path d="m1.5 370.5c-3.589-8.594 5.475-13.33 10.271-18.723 0.728-9.772-0.325-19.79 0.533-29.473 11.11-3.91 16.702 8.4 14.196 17.69"/>
    <path d="m26.5 340h94.5"/>
    <path d="m121 340c-0.61-5.599 2.191-15.76-5.298-16.546-0.307-1.168-0.283-2.681 0.744-3.688 1.221-0.264 3.002-0.208 4.054-0.517"/>
    <path d="m120.5 319.25c-0.291-10.072 0.608-20.254-0.5-30.25"/>
    <path d="m120 289c-4.619-6.998-9.734-17.205-8.453-26.297 3.105-0.664 6.435 0.432 9.453-0.703"/>
    <path d="m121 262c4.347-5.771 12.04-4.685 18.5-5.5"/>
    <path d="m139.5 256.5v-10"/>
    <path d="m139.5 246.5c-1.757-3.372-6.522-4.185-7.729-7.975 2.616-1.397 6.062 0.351 8.729-1.025"/>
    <path d="m140.5 237.5c-0.673-9.131 0.672-18.715-0.25-28"/>
    <path d="m140.25 209.5c-1.974-0.016-3.652 0.088-4.703-0.148-1.064-10.74-0.597-22.211-0.243-33.047 1.991-0.768 4.325 0.317 6.195-0.805"/>
    <path d="m141.5 175.5c-0.693-2.691-0.959-6.23 0.047-8.796 3.276-0.587 6.693 0.22 9.953-0.454"/>
    <path d="m151.5 166.25v-3.75"/>
    <path d="m151.5 162.5c-1.406-2.105-2.603-4.183-3-6.75"/>
    <path d="m148.5 155.75c-0.211-0.129-0.423-0.259-0.634-0.388-0.736-2.271-0.411-4.897 0.429-7.071 2.52-0.56 5.143-0.174 7.705-0.292"/>
    <path d="m156 148v-32"/>
    <path d="m156 116c-1.417 0.083-2.595-0.072-3.453-0.547-1.005-4.462-0.643-9.602-0.238-14.144 0.442-0.225 0.804-0.529 1.164-0.836 1.069-0.264 2.088-0.578 2.527-1.473"/>
    <path d="m156 99c-1.144-10.212 7.403-19.716 17.5-19.5"/>
    <path d="m173.5 79.5c-1.132-5.81-0.188-12.033-0.5-18"/>
    <path d="m173 61.5c-0.619 0.038-1.041-0.052-1.453-0.148-1.248-4.189 3.229-8.399 6.953-9.852"/>
    <path d="m178.5 51.5c-1.047-7.59-0.377-15.626-0.354-23.352 0.37-0.448 1.11-0.498 1.85-0.648"/>
    <path d="m180 27.5c0.356-3.603-0.71-7.575 0.547-10.953 0.618-0.382 1.581-0.419 2.453-0.547"/>
    <path d="m183 16c-0.014-2.855 0.2-5.735-0.5-8.5"/>
    <path d="m182.5 7.5c-1.335-0.331-2.394-0.939-3.271-1.729-0.238-1.172-0.246-2.511 0.072-3.473 0.65-0.685 1.36-1.307 1.7-2.298"/>
    <path d="m250 262c1.695 0.551 3.546 0.254 5.216 0.728 0.145 8.144-4.04 16.08-7.716 22.772"/>
    <path d="m247.5 285.5c-1.078 11.212-0.23 22.682-0.5 34"/>
    <path d="m247 319.5c1.417-0.016 2.595-0.038 3.453 0.147 0.629 1.003 0.585 2.847-0.001 3.808-4.427 3.036-4.483 11.678-3.952 17.045"/>
    <path d="m246.5 340.5c6.977-1.141 14.365-0.186 21.5-0.5"/>
    <path d="m268 340h35"/>
    <path d="m303 340h24"/>
    <path d="m368 376v51"/>
    <path d="m368 427c0.041 1.708 0.066 3.399-0.5 4.5"/>
    <path d="m367.5 431.5c0.798 5.111 0.854 10.901 0 16"/>
    <path d="m367.5 447.5c0.585 1.165 0.513 2.952 0 4"/>
    <path d="m367.5 451.5c1.161 15.311 0.171 31.032 0.5 46.5"/>
    <path d="m368 498c-0.215 2.543 0.426 5.267-0.305 7.695-40.175 0.71-80.473 0.103-120.7 0.305"/>
    <path d="m247 506c-1.243 1.504 0.331 3.321 0 5"/>
    <path d="m182.5 7.5c1.335-0.332 2.397-0.937 3.264-1.736 0.433-1.458 0.393-2.315 0.272-3.806-0.33-0.607-1.26-1.189-2.03-1.958"/>
    <path d="m156 116c0.022-1.644-0.158-3.492 0.309-4.691 4.421-2.672 9.042-5.314 14.024-6.643"/>
    <path d="m170.33 104.67c9.606-1.528 19.825-0.242 29.667-0.667"/>
    <path d="m212 116c1.702 0.036 3.428 0.095 4.453-0.547-0.116-3.81 1.741-8.604-0.711-12.201-1.375-1.191-3.541-0.833-4.242-2.752"/>
    <path d="m363.5 370.5c1.123 0.543 2.887 0.447 4.5 0.5"/>
    <path d="m368 371c3.019-10.246-6.427-15.24-11.371-22.444-0.398-9.317 0.154-18.717-0.276-28.009-11.999-4.659-21.1 8.338-17.853 19.453"/>
    <path d="m260.67 370.67c34.097 0.441 68.784 0.779 102.83-0.167"/>
    <path d="m363.5 370.5c-1.859-10.793-13.25-21.481-25-20"/>
    <path d="m1.5 370.5c1.165 0.585 2.953 0.513 4 0"/>
    <path d="m5.5 370.5c-0.749-8.842 9.64-12.602 13.708-19.215 2.362-0.783 5.06 0.382 7.292-0.785"/>
    <path d="m5.5 370.5c33.79 0.834 68.163 0.831 102 0"/>
    <path d="m107.5 370.5c4.311-1.102 9.032-0.212 13.5-0.5"/>
    <path d="m121 370v-19"/>
    <path d="m139.5 246.5c30.311-1.166 61.031-0.167 91.5-0.5"/>
    <path d="m231 246c2.34-2.001 6.117-4.209 6.341-7.502-2.899-1.062-6.264-0.232-9.341-0.498"/>
    <path d="m173 61.5h20"/>
    <path d="m193 61.5c0.619 0.038 1.041-0.052 1.453-0.148 0.318-0.329 0.408-0.865 0.486-1.412-1.099-4.142-4.303-6.609-7.439-8.94"/>
    <path d="m180 27.5c1.827-0.112 3.716 0.259 5.5-0.25"/>
    <path d="m185.5 27.25c-0.166-3.469 0.323-7.06-0.233-10.459-0.38-0.271-1.22-0.63-2.27-0.791"/>
    <path d="m178.5 51.5c2.811-1.045 6.034-0.237 9-0.5"/>
    <path d="m187.5 51c-1.237-7.608 2.538-17.778-2-23.75"/>
    <path d="m173.5 79.5c6.11 0.807 12.902 0.849 19 0"/>
    <path d="m192.5 79.5c1.132-5.81 0.188-12.033 0.5-18"/>
    <path d="m156 99c16.998-5.584 39.569-8.541 55.5 1.5"/>
    <path d="m211.5 100.5c1.305-10.906-7.594-21.775-19-21"/>
    <path d="m170.5 147.5c1.985 0.953 4.36 0.296 6.5 0.5"/>
    <path d="m177 148c0.973-8.427-5.453-47.601 11.714-38.71 1.882 0.975 2.378 2.396 4.142 4.855 0.333 11.273 0.052 22.572 0.145 33.855"/>
    <path d="m170.33 104.67c0.388 14.251 0.056 28.56 0.167 42.833"/>
    <path d="m212 148v-32"/>
    <path d="m212 116c-0.019-1.648 0.146-3.479-0.3-4.701-3.775-2.597-7.063-6.545-11.7-7.299"/>
    <path d="m200 104v44"/>
    <path d="m156 148h3"/>
    <path d="m159 148c0.004-8.332-0.008-16.664 0.005-24.995 0.868-1.838 1.944-5.11 4.702-3.699 0.706 0.615 1.357 1.298 2.069 1.918 1.493 8.617 0.382 17.528 0.724 26.276"/>
    <path d="m166.5 147.5c1.165 0.584 2.953 0.513 4 0"/>
    <path d="m177 148h16"/>
    <path d="m159 148c2.472-0.267 5.196 0.578 7.5-0.5"/>
    <path d="m209.5 147.5c-0.883-9.312 1.952-19.609-1.785-28.215-0.863-0.251-1.706-0.147-2.423 0.023-5.042 8.026-0.984 19.356-2.292 28.692"/>
    <path d="m148.5 155.75c23.275-0.416 46.729-0.417 70 0"/>
    <path d="m218.5 155.75c0.211-0.129 0.423-0.259 0.635-0.388 0.617-2.154 0.423-4.603 0.218-6.815-2.202-1.106-4.942-0.289-7.353-0.547"/>
    <path d="m212 148c-1.029 0.029-1.771-0.229-2.5-0.5"/>
    <path d="m209.5 147.5c-1.985 0.953-4.36 0.296-6.5 0.5"/>
    <path d="m203 148h-3"/>
    <path d="m200 148h-7"/>
    <path d="m151.5 162.5c21.443-1.497 43.569 0.498 65-1"/>
    <path d="m216.5 161.5c0.619-1.97 1.748-3.62 2-5.75"/>
    <path d="m151.5 166.25c21.784 0.582 43.675 0.084 65.5 0.25"/>
    <path d="m217 166.5c0.042-2.251 0.066-3.846-0.5-5"/>
    <path d="m141.5 175.5c28.978 1.165 58.365 0.168 87.5 0.5"/>
    <path d="m229 176c-0.349-3.04 0.71-6.538-0.547-9.296-3.784-0.446-7.641-0.087-11.453-0.204"/>
    <path d="m140.25 209.5c0.671-6.261-0.109-12.686 0.398-18.953 28.741-1.071 58.21-0.59 87.047-0.242 1.01 6.308-0.537 13.01 0.805 19.195"/>
    <path d="m228.5 209.5c1.159-0.016 2.98 0.088 3.954-0.148 1.061-10.741 0.596-22.211 0.241-33.047-1.063-0.27-2.401-0.265-3.695-0.305"/>
    <path d="m140.5 237.5c28.978 1.165 58.365 0.168 87.5 0.5"/>
    <path d="m228 238c0.331-9.466-0.664-19.204 0.5-28.5"/>
    <path d="m139.5 256.5c30.11 0.832 60.902 0.834 91 0"/>
    <path d="m230.5 256.5c1.064-3.312 0.234-7.031 0.5-10.5"/>
    <path d="m121 262c42.846 0.832 86.164 0.834 129 0"/>
    <path d="m250 262c-4.83-5.27-12.809-4.781-19.5-5.5"/>
    <path d="m120 289c1.041-4.209 0.253-8.685 0.5-13"/>
    <path d="m120.5 276c0.16-2.055-0.317-4.233 0.229-6.216 41.821-0.564 83.872-0.292 125.72-0.137 1.065 1.871 0.31 4.274 0.547 6.353"/>
    <path d="m247 276c0.295 3.136-0.616 6.533 0.5 9.5"/>
    <path d="m120.5 276h6.5"/>
    <path d="m127 276c7.133 0.329 14.538-0.661 21.5 0.5"/>
    <path d="m148.5 276.5c2.127-0.723 4.885-0.853 7 0"/>
    <path d="m155.5 276.5c18.978-1.163 38.365-0.169 57.5-0.5"/>
    <path d="m120.5 319.25c2.118 0.486 4.341 0.142 6.5 0.25"/>
    <path d="m127 319.5v-43.5"/>
    <path d="m127 319.5c6.992-0.251 14.082 0.552 21-0.5"/>
    <path d="m148 319c0.547-0.667 0.781-1.333 1-2"/>
    <path d="m149 317c2.486 0.398 4.543-0.646 6.667-1.667"/>
    <path d="m148.5 276.5c1.159 13.311 0.172 27.032 0.5 40.5"/>
    <path d="m155.67 315.33c0.125 0.038 0.251 0.075 0.376 0.112 17.786-7.174 36.576-9.129 56.957-0.445"/>
    <path d="m155.5 276.5c0.111 12.939-0.223 25.918 0.167 38.833"/>
    <path d="m213 315c1.867 1.208 4.273 1.316 6.5 1.5"/>
    <path d="m219.5 276.5c-1.985-0.953-4.36-0.297-6.5-0.5"/>
    <path d="m213 276v39"/>
    <path d="m240.5 276.5c-6.777-0.812-14.235-0.847-21 0"/>
    <path d="m219.5 276.5c0.827 13.11 0.838 26.902 0 40"/>
    <path d="m247 276c-2.142 0.243-4.525-0.543-6.5 0.5"/>
    <path d="m240.5 276.5v42.75"/>
    <path d="m148 319c5.548 0.992 11.407 0.542 17 0"/>
    <path d="m165 319c0.497-0.729 0.854-1.218 1.203-1.694 12.752-4.569 24.842-4.179 37.643-0.161 0.424 0.374 0.731 1.115 1.154 1.855"/>
    <path d="m205 319c5.604 0.31 11.455 1.154 17 0"/>
    <path d="m222 319c-0.337-1.494-1.496-1.801-2.5-2.5"/>
    <path d="m165 319c13.181 0.823 26.829 0.837 40 0"/>
    <path d="m121 340v2"/>
    <path d="m121 342v9"/>
    <path d="m121 370h8"/>
    <path d="m129 370c0.204-14.542-0.407-29.267 0.305-43.695 6.308-0.359 13.01-0.778 19.195 0.195"/>
    <path d="m148.5 326.5c2.786-0.749 6.227-0.863 9 0"/>
    <path d="m157.5 326.5c18.11-0.83 36.902-0.836 55 0"/>
    <path d="m212.5 326.5c3.312-1.064 7.03-0.234 10.5-0.5"/>
    <path d="m223 326c5.707 0.364 11.869-0.729 17.297 0.547 1.364 14.171 0.423 28.974 0.703 43.453"/>
    <path d="m246 370c0.327-6.466-0.659-13.204 0.5-19.5"/>
    <path d="m246.5 350.5c-0.749-2.785-0.863-6.227 0-9"/>
    <path d="m247 319.5c-2.159-0.129-4.385 0.283-6.5-0.25"/>
    <path d="m240.5 319.25c-6.111 0.339-12.421 0.615-18.5-0.25"/>
    <path d="m129 370c6.466-0.327 13.204 0.659 19.5-0.5"/>
    <path d="m148.5 369.5c2.786 0.749 6.227 0.863 9 0"/>
    <path d="m148.5 326.5v43"/>
    <path d="m157.5 369.5c18.11 0.83 36.902 0.836 55 0"/>
    <path d="m157.5 326.5v43"/>
    <path d="m212.5 369.5c3.312 1.064 7.03 0.234 10.5 0.5"/>
    <path d="m212.5 326.5c0.84 14.124 0.821 28.828 0 43"/>
    <path d="m223 370h18"/>
    <path d="m223 326v44"/>
    <path d="m110 376c2.689 1.371 3.799 4.336 5.291 6.71 1.847 0.667 3.735 0.947 5.709 0.79"/>
    <path d="m121 383.5c41.825 0.167 83.72-0.333 125.5 0.25"/>
    <path d="m246.5 383.75c2.336-0.771 5.135 0.552 7.229-1.031 1.179-2.665 3.141-4.774 4.771-7.219"/>
    <path d="m258.5 375.5c0.347-1.802 1.668-3.064 2.167-4.833"/>
    <path d="m260.67 370.67c-4.61-1.453-9.822-0.294-14.667-0.667"/>
    <path d="m246 370h-5"/>
    <path d="m107.5 370.5c0.049 2.294 2.78 3.177 2.5 5.5"/>
    <path d="m1 376h109"/>
    <path d="m1.5 370.5c-0.393 0.273-0.943 0.391-1.5 0.5"/>
    <path d="m0 371v5"/>
    <path d="m258.5 375.5c36.311 1.166 73.031 0.167 109.5 0.5"/>
    <path d="m368 376l0.5-0.5"/>
    <path d="m368.5 375.5v-4"/>
    <path d="m1.5 427c39.633 0.333 79.537-0.667 119 0.5"/>
    <path d="m120.5 427.5c0.707-1.801 0.834-4.21 0-6"/>
    <path d="m1 376c0.33 16.977-0.662 34.142 0.5 51"/>
    <path d="m246.5 383.75v5.25"/>
    <path d="m246.5 389c7.709 0.208 15.601-0.411 23.195 0.305 0.337 10.551 0.838 21.674-0.242 31.992-7.534 0.468-15.141 0.072-22.703 0.203"/>
    <path d="m246.75 421.5c-0.591 1.83 0.811 3.689-0.25 5.5"/>
    <path d="m246.5 427h121.5"/>
    <path d="m120.33 391.67c0.274 8.523 0.281 17.144 0 25.666"/>
    <path d="m120.5 427.5c0.351 0.649 0.381 1.618 0.5 2.5"/>
    <path d="m121 430h26"/>
    <path d="m147 430c1.01-4.206-0.384-8.457 0.5-12.5"/>
    <path d="m147.5 417.5c-0.451-0.883-0.432-2.235-0.5-3.5"/>
    <path d="m147 414c-1.437 0.084-2.619-0.072-3.296-0.547-0.255-1.598-0.356-3.316-0.056-4.907 8.739-1.468 18.206 0.223 27.043-0.855 4.907-10.322 21.85-10.334 26.592 0.026 8.4 0.852 17.086-0.304 25.412 0.588 0.305 1.726 0.65 3.732-0.007 5.384-0.817 0.183-1.528 0.472-2.188 0.812"/>
    <path d="m220.5 414.5c0.066 1.35-0.061 2.579-0.5 3"/>
    <path d="m246.75 421.5c-0.313-1.123-0.289-2.887 0.25-4.5"/>
    <path d="m121 383.5c0.042 2.251 0.066 3.847-0.5 5"/>
    <path d="m120.5 421.5c0.599-1.151 0.535-2.931-0.167-4.167"/>
    <path d="m120.5 388.5c-7.187 1.347-14.965-0.225-22.195 0.805-0.337 10.551-0.838 21.674 0.242 31.992 7.284 0.467 14.641 0.073 21.953 0.203"/>
    <path d="m120.33 391.67c-6.228-0.279-12.571-0.265-18.787-0.02-1.057 8.407-0.602 17.545-0.242 26.048 6.258 0.287 12.894 0.946 19.029-0.362"/>
    <path d="m247 392v25"/>
    <path d="m147 414h28"/>
    <path d="m175 414c1.919-6.606 10.417-9.335 15.702-4.702 0.61 1.982 2.5 3.054 2.798 5.202"/>
    <path d="m175 414c0.079 1.412-0.085 2.582-0.5 3.5"/>
    <path d="m174.5 417.5c1.155 10.644 0.175 21.698 0.5 32.5"/>
    <path d="m175 450c6.031 0.95 12.405 0.536 18.5 0.25"/>
    <path d="m147.5 417.5h4.5"/>
    <path d="m152 417.5c1.708-0.021 3.399-0.033 4.5 0.25"/>
    <path d="m156.5 417.75c2.784-0.518 5.675-0.125 8.5-0.25"/>
    <path d="m165 417.5c1.708-0.021 3.399-0.033 4.5 0.25"/>
    <path d="m193.75 417.5h4.25"/>
    <path d="m198 417.5h5"/>
    <path d="m220.5 414.5c-8.776-0.82-18.236-0.842-27 0"/>
    <path d="m193.5 414.5c-0.039 0.962 0.043 2.15 0.25 3"/>
    <path d="m147 430c0.119 0.167 0.238 0.333 0.357 0.5-0.03 1.314-0.231 2.802-0.857 4"/>
    <path d="m146.5 434.5c2.117 4.788 0.487 10.383 1 15.5"/>
    <path d="m147.5 450h4.5"/>
    <path d="m152 450c1.498 0.644 3.162 0.465 4.5-0.5"/>
    <path d="m152 417.5v32.5"/>
    <path d="m156.5 449.5c2.536 1.637 5.663 0.788 8.5 1"/>
    <path d="m156.5 417.75v31.75"/>
    <path d="m165 450.5c1.554 0.14 3.187-0.145 4.5-1"/>
    <path d="m165 417.5v33"/>
    <path d="m174.5 417.5c-1.662 0.095-3.382-0.237-5 0.25"/>
    <path d="m169.5 417.75v31.75"/>
    <path d="m193.5 450.25c1.124 0.271 2.887 0.224 4.5 0.25"/>
    <path d="m193.75 417.5c-0.578 10.867-0.087 21.842-0.25 32.75"/>
    <path d="m198 450.5c1.735 0.315 3.274-0.667 5-0.5"/>
    <path d="m198 417.5v33"/>
    <path d="m211 417.5h-8"/>
    <path d="m203 417.5v32.5"/>
    <path d="m216 417.5h-5"/>
    <path d="m211 417.5c0.732 10.592 0.464 21.318 0.5 32"/>
    <path d="m220 430v-12.5"/>
    <path d="m220 417.5h-4"/>
    <path d="m216 417.5v32.5"/>
    <path d="m1.5 431.5h118"/>
    <path d="m119.5 431.5c0.292-0.708 0.838-1.162 1.5-1.5"/>
    <path d="m1.5 427c-0.53 1.399-0.855 3.159 0 4.5"/>
    <path d="m246.5 429.5c0.321 0.679 0.61 1.39 1 2"/>
    <path d="m246.5 427v2.5"/>
    <path d="m119.5 431.5c0.384 1.324 0.694 2.706 1.5 3"/>
    <path d="m121 434.5h25.5"/>
    <path d="m220.5 434.5c8.606 0.111 17.251-0.223 25.833 0.167"/>
    <path d="m246.5 429.5c-8.644 1.149-17.698 0.18-26.5 0.5"/>
    <path d="m220 430c-0.042 1.708-0.066 3.399 0.5 4.5"/>
    <path d="m1.5 447.5h119"/>
    <path d="m120.5 447.5c1.103-4.144 0.206-8.7 0.5-13"/>
    <path d="m1.5 431.5c-0.798 5.111-0.853 10.901 0 16"/>
    <path d="m246.33 434.67c0.531 4.242-0.256 8.613 0.417 12.833"/>
    <path d="m367.5 431.5h-120"/>
    <path d="m247.5 431.5c-0.345 0.936-0.545 2.179-1.167 3.167"/>
    <path d="m120.5 447.5c0.451 0.804 0.432 2.32 0.5 4"/>
    <path d="m121 451.5h26.25"/>
    <path d="m147.25 451.5c0.137-0.394 0.195-0.942 0.25-1.5"/>
    <path d="m220.5 434.5c-1.438 5.111 0.45 10.901-1 16"/>
    <path d="m1.5 451.5c39.478 1.166 79.365 0.167 119 0.5"/>
    <path d="m120.5 452c0.131-0.202 0.314-0.353 0.5-0.5"/>
    <path d="m1.5 447.5c-0.584 1.165-0.513 2.952 0 4"/>
    <path d="m246.5 451.25c0.5 0.146 1 0.419 1.5 0.75"/>
    <path d="m367.5 447.5h-120.75"/>
    <path d="m246.75 447.5c-0.226 0.844-0.216 2.277-0.25 3.75"/>
    <path d="m147.25 451.5c0.271 1.123 0.224 2.887 0.25 4.5"/>
    <path d="m147.5 456h17.5"/>
    <path d="m165 456c12.466 0.332 25.204-0.665 37.5 0.5"/>
    <path d="m202.5 456.5c5.644-1.127 11.698-0.194 17.5-0.5"/>
    <path d="m220 456l0.5-0.5"/>
    <path d="m219.5 450.5c-1.171 0.117-2.084-0.312-3.5-0.5"/>
    <path d="m216 450c-1.498 0.644-3.162 0.465-4.5-0.5"/>
    <path d="m211.5 449.5c-2.369 2.047-5.742 0.553-8.5 0.5"/>
    <path d="m175 450c-1.805 0.674-3.876 0.646-5.5-0.5"/>
    <path d="m1.5 497.5c39.444 0.833 79.569 0.834 119 0"/>
    <path d="m120.5 497.5c0.736-2.456 0.861-5.557 0-8"/>
    <path d="m120.5 489.5c-7.326-0.359-14.91 0.578-22-0.139-0.953-10.452-0.581-21.543-0.195-32.057 7.308-0.363 15.01-0.776 22.195 0.195"/>
    <path d="m1.5 451.5c-0.829 15.11-0.836 30.902 0 46"/>
    <path d="m121 456h26.5"/>
    <path d="m120.5 452c-0.118 1.714 0.313 2.531 0.5 4"/>
    <path d="m220.5 455.5c8.483 1.581 17.782-0.693 26.167 1.167"/>
    <path d="m246.5 451.25c-8.617 0.575-17.342 0.089-26 0.25"/>
    <path d="m220.5 451.5c-0.585 1.165-0.513 2.952 0 4"/>
    <path d="m247.33 456.33c7.15 1.714 15.091-0.153 22.362 0.972 0.337 10.551 0.838 21.674-0.242 31.992-7.534 0.468-15.141 0.072-22.703 0.203"/>
    <path d="m367.5 451.5c-39.645 1.166-79.698 0.167-119.5 0.5"/>
    <path d="m120.5 506.5c0.543 1.123 0.447 2.887 0.5 4.5"/>
    <path d="m121 511c8.751-0.178 17.859 0.565 26.5-0.5"/>
    <path d="m147.5 510.5c3.78 1.392 8.232-0.411 12 1"/>
    <path d="m159.5 511.5c1.656-0.901 3.691-0.32 5.5-0.5"/>
    <path d="m147.5 456v54.5"/>
    <path d="m165 511c3.135-0.295 6.534 0.616 9.5-0.5"/>
    <path d="m174.5 510.5c0.632-14.132-1.264-29.154 0.945-42.732 5.613-0.496 11.39-0.312 17.008-0.12 1.271 14.198 0.186 28.944 0.547 43.353"/>
    <path d="m165 456v55"/>
    <path d="m202.5 510.5c1.655 0.901 3.69 0.319 5.5 0.5"/>
    <path d="m208 511c4.113 0.241 7.876 0.235 12 0"/>
    <path d="m202.5 456.5v54"/>
    <path d="m220 511c9.002-0.216 18.189 0.314 27 0"/>
    <path d="m246.5 498c0.147-2.825-0.308-5.719 0.25-8.5"/>
    <path d="m246.75 489.5c-0.305-0.883-0.131-2.235 0.25-3.5"/>
    <path d="m220 456v55"/>
    <path d="m120.5 486.5c-6.187 0.929-12.965 0.601-19.195 0.195-0.491-8.384-0.521-17.073 0-25.391 6.342-0.687 12.806-0.117 19.195-0.305"/>
    <path d="m247 461c6.246-0.562 13.165-0.166 19.297 0.547 0.367 8.262 0.273 16.652 0.056 24.906-6.125 0.661-13.456 1.43-19.353-0.453"/>
    <path d="m246.67 456.67c-0.223 0.942-0.215 2.737 0.333 4.333"/>
    <path d="m120.5 486.5v-25.5"/>
    <path d="m247 461c0.271 8.153-0.187 16.685 0 25"/>
    <path d="m174.5 510.5c5.977 1.131 12.365 0.191 18.5 0.5"/>
    <path d="m1.5 497.5c-0.699 2.429-0.932 5.594 0.047 7.953 39.386 1.608 79.544-0.483 118.95 1.047"/>
    <path d="m368 498h-121.5"/>
    <path d="m246.5 498c-0.201 2.72 0.171 5.343 0.5 8"/>
    <path d="m120.67 517.33c12.909 0.222 25.947 0.39 38.833-0.083"/>
    <path d="m159.5 517.25v-5.75"/>
    <path d="m121 511c-0.935 1.868-0.462 4.288-0.333 6.333"/>
    <path d="m159.5 517.25c16.117 0.581 32.342 0.085 48.5 0.25"/>
    <path d="m208 517.5v-6.5"/>
    <path d="m202.5 510.5c-2.979 1.046-6.363 0.246-9.5 0.5"/>
    <path d="m208 517.5h38.5"/>
    <path d="m246.5 517.5c0.953-1.985 0.297-4.359 0.5-6.5"/>
    <path d="m183 195.5c5.308-0.165 10.503 1.967 14 5.5"/>
    <path d="m197 201c3.818 3.292 6.564 8.57 6 14"/>
    <path d="m163.5 215.5c-0.563-4.545 1.092-10.273 5-13"/>
    <path d="m168.5 202.5c3.175-4.948 8.865-6.628 14.5-7"/>
    <path d="m163.5 215.5c3.312-1.064 7.031-0.235 10.5-0.5"/>
    <path d="m174 215c-0.364-2.034 1.566-3.502 1.5-5.5"/>
    <path d="m175.5 209.5c2.147-1.79 4.632-2.265 7.167-3.167"/>
    <path d="m168.5 202.5c2.829 1.774 4.878 4.478 7 7"/>
    <path d="m189.5 208.5c0.313 2.289 2.292 3.989 2 6.5"/>
    <path d="m197 201l-7.5 7.5"/>
    <path d="m183 195.5c-0.394 3.562-0.814 7.221-0.333 10.833"/>
    <path d="m182.67 206.33c2.371 0.724 4.637 1.013 6.833 2.167"/>
    <path d="m174 215c-0.35 2.525 1.296 4.478 2.5 6.5"/>
    <path d="m176.5 221.5c1.892 1.363 3.838 2.2 6 3"/>
    <path d="m182.5 224.5c1.992-0.704 4.013-1.267 6-2"/>
    <path d="m188.5 222.5c1.996-2.116 2.979-4.533 3-7.5"/>
    <path d="m169.5 228.5c2.543 4.412 8.046 5.809 12.833 5.833"/>
    <path d="m182.33 234.33c0.362-3.251 0.074-6.561 0.167-9.833"/>
    <path d="m163.5 215.5c-0.058 4.963 1.598 10.336 6 13"/>
    <path d="m169.5 228.5l7-7"/>
    <path d="m182.33 234.33c4.516 0.779 10.613-0.656 13.333-4.667"/>
    <path d="m195.67 229.67c-2.062-2.662-4.618-4.987-7.167-7.167"/>
    <path d="m195.67 229.67c5.372-2.374 7.776-9.16 7.333-14.667"/>
    <path d="m203 215h-11.5"/>
    <path d="m173.5 350.5c4.938 12.074 20.836 7.911 23.291-1.709 4.84-18.95-29.67-20.44-23.29 1.71"/>
  </g>
</svg>
